<svg xmlns="http://www.w3.org/2000/svg" width="19.456" height="19.456" viewBox="0 0 19.456 19.456">
  <path id="goal" d="M18.027,4.653l.944-.943a.57.57,0,0,0-.355-.971l-1.751-.148L16.717.84a.57.57,0,0,0-.971-.355l-.944.943A9.728,9.728,0,0,0,2.848,16.608,9.729,9.729,0,0,0,18.027,4.653ZM15.769,3.167a.57.57,0,0,0,.52.52l1.007.085L15.933,5.135l-1.487-.125-.125-1.487,1.363-1.363Zm-4.1,6.562a1.94,1.94,0,1,1-1.032-1.712L9.324,9.326a.57.57,0,1,0,.806.806L11.44,8.823a1.925,1.925,0,0,1,.226.906Zm-.2-2.541a3.081,3.081,0,1,0,.806.806L13.9,6.366a5.364,5.364,0,1,1-.806-.806ZM15.8,15.8A8.588,8.588,0,1,1,3.654,3.656a8.592,8.592,0,0,1,10.316-1.4l-.643.643a.57.57,0,0,0-.167.388c0,.021,0,.042,0,.062l.077.909a6.5,6.5,0,1,0,1.952,1.952l.909.077.048,0h.031l.037,0,.023,0,.036-.007.022-.006.034-.011.022-.008.033-.014.021-.01.032-.018.019-.011.033-.024.015-.011a.565.565,0,0,0,.045-.04l.643-.643A8.592,8.592,0,0,1,15.8,15.8Zm0,0" transform="translate(0.001 -0.001)" fill="#b72933"/>
</svg>
