<svg xmlns="http://www.w3.org/2000/svg" width="14.535" height="14.535" viewBox="0 0 14.535 14.535">
  <path id="link" d="M3.526,14.537a3.486,3.486,0,0,1-2.482-1.044A3.483,3.483,0,0,1,0,10.879a4.187,4.187,0,0,1,1.318-2.8L2.805,6.585a.568.568,0,1,1,.8.8L2.124,8.878a2.6,2.6,0,0,0-.277,3.812,2.6,2.6,0,0,0,3.811-.276L7.7,10.372A3.077,3.077,0,0,0,8.685,8.33a2.359,2.359,0,0,0-.71-1.768,2.513,2.513,0,0,0-.532-.408A.568.568,0,0,1,8,5.167a3.649,3.649,0,0,1,.773.591A3.483,3.483,0,0,1,9.819,8.372a4.187,4.187,0,0,1-1.318,2.8L6.46,13.216a4.187,4.187,0,0,1-2.8,1.318ZM7.3,9.159a.568.568,0,0,0-.212-.774,2.513,2.513,0,0,1-.532-.408,2.6,2.6,0,0,1,.276-3.811L8.876,2.125a2.6,2.6,0,0,1,3.811-.276A2.6,2.6,0,0,1,12.41,5.66L10.924,7.152a.568.568,0,0,0,.8.8l1.485-1.491a4.187,4.187,0,0,0,1.318-2.8A3.483,3.483,0,0,0,13.49,1.046,3.484,3.484,0,0,0,10.876,0a4.187,4.187,0,0,0-2.8,1.318L6.033,3.363a4.187,4.187,0,0,0-1.318,2.8A3.483,3.483,0,0,0,5.756,8.78a3.649,3.649,0,0,0,.773.591A.567.567,0,0,0,7.3,9.159Z" transform="translate(0.001 -0.002)" fill="#b72933"/>
</svg>
