<svg xmlns="http://www.w3.org/2000/svg" width="26.637" height="31.859" viewBox="0 0 26.637 31.859">
  <path id="location" d="M64.713,3.911A13.194,13.194,0,0,0,55.3,0h-.015A13.381,13.381,0,0,0,41.969,13.34c.188,5.062,5.057,11.491,8.85,16.43a5.849,5.849,0,0,0,9.076-.141c2.813-3.5,8.888-11.9,8.7-16.289a13.275,13.275,0,0,0-3.886-9.429ZM57.939,28.088a3.373,3.373,0,0,1-5.278,0c-5.142-6.548-8.2-12-8.2-14.752A10.85,10.85,0,0,1,55.284,2.491H55.3A10.842,10.842,0,0,1,66.11,13.34c0,2.781-2.978,8.157-8.171,14.749Zm-2.586-9.482a5.289,5.289,0,1,1,5.289-5.289A5.295,5.295,0,0,1,55.354,18.606Zm0-8.089a2.8,2.8,0,1,0,2.8,2.8A2.8,2.8,0,0,0,55.354,10.517Z" transform="translate(-41.966 0)" fill="#b72933"/>
</svg>
