<svg xmlns="http://www.w3.org/2000/svg" width="21.43" height="21.43" viewBox="0 0 21.43 21.43">
  <path id="Path_487" data-name="Path 487" d="M18.291,3.138A10.715,10.715,0,0,0,3.138,18.291,10.715,10.715,0,0,0,18.291,3.138Zm-6.949,3.57a19.576,19.576,0,0,0,3.273-.37,17.726,17.726,0,0,1,.5,3.748H11.343Zm0-1.256V1.361a4.671,4.671,0,0,1,2.377,2.5,11.06,11.06,0,0,1,.534,1.269,18.39,18.39,0,0,1-2.911.32ZM10.087,1.361V5.452a18.4,18.4,0,0,1-2.911-.32A11.057,11.057,0,0,1,7.71,3.863a4.671,4.671,0,0,1,2.377-2.5Zm0,5.347v3.379H6.309a17.729,17.729,0,0,1,.5-3.748,19.576,19.576,0,0,0,3.273.37ZM5.053,10.087H1.277A9.37,9.37,0,0,1,3.116,5.079a12.84,12.84,0,0,0,2.478.966A19.04,19.04,0,0,0,5.053,10.087Zm0,1.256a19.039,19.039,0,0,0,.541,4.042,12.84,12.84,0,0,0-2.478.966,9.37,9.37,0,0,1-1.839-5.008Zm1.256,0h3.778v3.379a19.576,19.576,0,0,0-3.273.37A17.727,17.727,0,0,1,6.309,11.343Zm3.778,4.635v4.091a4.671,4.671,0,0,1-2.377-2.5A11.06,11.06,0,0,1,7.176,16.3,18.39,18.39,0,0,1,10.087,15.978Zm1.256,4.091V15.978a18.4,18.4,0,0,1,2.911.32,11.057,11.057,0,0,1-.534,1.269,4.671,4.671,0,0,1-2.377,2.5Zm0-5.347V11.343H15.12a17.729,17.729,0,0,1-.5,3.748,19.576,19.576,0,0,0-3.273-.37Zm5.034-3.379h3.777a9.37,9.37,0,0,1-1.839,5.008,12.84,12.84,0,0,0-2.478-.966A19.039,19.039,0,0,0,16.376,11.343Zm0-1.256a19.039,19.039,0,0,0-.541-4.042,12.841,12.841,0,0,0,2.478-.966,9.37,9.37,0,0,1,1.839,5.008Zm1.1-5.989a11.9,11.9,0,0,1-1.992.745A12.4,12.4,0,0,0,14.843,3.3a8.75,8.75,0,0,0-.933-1.5A9.427,9.427,0,0,1,17.4,4.026ZM7.52,1.806a8.75,8.75,0,0,0-.933,1.5,12.393,12.393,0,0,0-.639,1.541A11.9,11.9,0,0,1,3.956,4.1l.07-.071A9.427,9.427,0,0,1,7.52,1.806ZM3.956,17.332a11.9,11.9,0,0,1,1.992-.745,12.389,12.389,0,0,0,.639,1.541,8.75,8.75,0,0,0,.933,1.5A9.427,9.427,0,0,1,4.026,17.4Zm9.953,2.291a8.748,8.748,0,0,0,.933-1.5,12.393,12.393,0,0,0,.639-1.541,11.9,11.9,0,0,1,1.992.745l-.07.071A9.427,9.427,0,0,1,13.91,19.623Z" fill="#b72933"/>
</svg>
