<svg xmlns="http://www.w3.org/2000/svg" width="18.354" height="18.354" viewBox="0 0 18.354 18.354">
  <path id="Path_488" data-name="Path 488" d="M16.2,9.894H12.044a2.153,2.153,0,0,0-2.151,2.151V16.2a2.153,2.153,0,0,0,2.151,2.151H16.2A2.153,2.153,0,0,0,18.354,16.2V12.044A2.153,2.153,0,0,0,16.2,9.894ZM16.92,16.2a.718.718,0,0,1-.717.717H12.044a.718.718,0,0,1-.717-.717V12.044a.718.718,0,0,1,.717-.717H16.2a.718.718,0,0,1,.717.717ZM6.309,9.894H2.151A2.153,2.153,0,0,0,0,12.044V16.2a2.153,2.153,0,0,0,2.151,2.151H6.309A2.153,2.153,0,0,0,8.46,16.2V12.044A2.153,2.153,0,0,0,6.309,9.894ZM7.026,16.2a.718.718,0,0,1-.717.717H2.151a.718.718,0,0,1-.717-.717V12.044a.718.718,0,0,1,.717-.717H6.309a.718.718,0,0,1,.717.717ZM6.309,0H2.151A2.153,2.153,0,0,0,0,2.151V6.309A2.153,2.153,0,0,0,2.151,8.46H6.309A2.153,2.153,0,0,0,8.46,6.309V2.151A2.153,2.153,0,0,0,6.309,0Zm.717,6.309a.718.718,0,0,1-.717.717H2.151a.718.718,0,0,1-.717-.717V2.151a.718.718,0,0,1,.717-.717H6.309a.718.718,0,0,1,.717.717ZM16.2,0H12.044A2.153,2.153,0,0,0,9.894,2.151V6.309A2.153,2.153,0,0,0,12.044,8.46H16.2a2.153,2.153,0,0,0,2.151-2.151V2.151A2.153,2.153,0,0,0,16.2,0Zm.717,6.309a.718.718,0,0,1-.717.717H12.044a.718.718,0,0,1-.717-.717V2.151a.718.718,0,0,1,.717-.717H16.2a.718.718,0,0,1,.717.717Z" fill="#b72933"/>
</svg>
