<svg xmlns="http://www.w3.org/2000/svg" width="32.604" height="26.439" viewBox="0 0 32.604 26.439">
  <path id="Path_468" data-name="Path 468" d="M-982.616,8474.441a.955.955,0,0,1-.936-1.146l3.712-18.059h26.519a1.923,1.923,0,0,1,1.912,2.135l-1.7,15.359a1.923,1.923,0,0,1-1.912,1.711ZM-984,8449.926a1.923,1.923,0,0,1,1.924-1.924h5.057a.962.962,0,0,1,.962.961v.472a.944.944,0,0,0,.943.945H-958.3a1.922,1.922,0,0,1,1.924,1.922v1.048h-24.234a.943.943,0,0,0-.924.753L-984,8466.11Z" transform="translate(984.001 -8448.002)" fill="#b72933"/>
</svg>
