<svg xmlns="http://www.w3.org/2000/svg" width="15.098" height="18.582" viewBox="0 0 15.098 18.582">
  <path id="Path_486" data-name="Path 486" d="M1.742,18.583A1.742,1.742,0,0,1,0,16.841V1.743A1.742,1.742,0,0,1,1.742,0h9.291a.581.581,0,0,1,.412.168L14.93,3.653a.581.581,0,0,1,.168.412V16.841a1.742,1.742,0,0,1-1.742,1.742ZM1.161,1.743v15.1a.581.581,0,0,0,.581.581H13.356a.581.581,0,0,0,.581-.581V4.646H11.614a1.161,1.161,0,0,1-1.161-1.161V1.162H1.742A.581.581,0,0,0,1.161,1.743ZM11.614,15.1V13.937h1.161V15.1Zm-9.291,0V13.937h8.13V15.1Zm0-2.9V11.034H12.775V12.2Zm0-2.9V8.13H12.775V9.292Z" transform="translate(0 -0.001)" fill="#b72933"/>
</svg>
