<svg xmlns="http://www.w3.org/2000/svg" width="19.086" height="10.997" viewBox="0 0 19.086 10.997">
  <path id="Path_485" data-name="Path 485" d="M-18983.611,8068a9.168,9.168,0,0,1-3.506-.817,13.98,13.98,0,0,1-2.924-1.767,17.165,17.165,0,0,1-2.682-2.563l-.279-.349.279-.35a17.285,17.285,0,0,1,2.682-2.562,13.923,13.923,0,0,1,2.924-1.768,9.151,9.151,0,0,1,3.506-.817l.152,0,.152,0a9.2,9.2,0,0,1,3.508.817,13.961,13.961,0,0,1,2.922,1.768,17.285,17.285,0,0,1,2.682,2.562l.279.35-.279.349a17.165,17.165,0,0,1-2.682,2.563,14.018,14.018,0,0,1-2.922,1.767,9.186,9.186,0,0,1-3.508.817c-.053,0-.1,0-.152,0S-18983.559,8068-18983.611,8068Zm.018-9.875a4.385,4.385,0,0,0-4.244,4.378,4.385,4.385,0,0,0,4.244,4.378h.27a4.384,4.384,0,0,0,4.244-4.378,4.384,4.384,0,0,0-4.244-4.378h-.27Zm5.633,4.378a5.483,5.483,0,0,1-.809,2.87,14.183,14.183,0,0,0,1.189-.827,17.009,17.009,0,0,0,2.209-2.043,17.079,17.079,0,0,0-2.209-2.043,13.958,13.958,0,0,0-1.189-.825A5.477,5.477,0,0,1-18977.961,8062.5Zm-11.377-2.043a17.079,17.079,0,0,0-2.209,2.043,17.114,17.114,0,0,0,2.209,2.043,14.231,14.231,0,0,0,1.191.827,5.466,5.466,0,0,1-.811-2.87,5.461,5.461,0,0,1,.811-2.869A14,14,0,0,0-18989.338,8060.455Zm2.7,2.043a3.182,3.182,0,0,1,3.178-3.181,3.186,3.186,0,0,1,3.182,3.181,3.185,3.185,0,0,1-3.182,3.18A3.182,3.182,0,0,1-18986.637,8062.5Zm1.115,0a2.066,2.066,0,0,0,2.063,2.062,2.064,2.064,0,0,0,2.063-2.062,2.064,2.064,0,0,0-2.062-2.062A2.067,2.067,0,0,0-18985.521,8062.5Z" transform="translate(18993.002 -8057)" fill="#b72933"/>
</svg>
